<svg xmlns="http://www.w3.org/2000/svg" viewBox="0 0 40 40" style="enable-background:new 0 0 40 40" xml:space="preserve">
  <path d="M32 0H8C3.6 0 0 3.6 0 8v24c0 4.4 3.6 8 8 8h24c4.4 0 8-3.6 8-8V8c0-4.4-3.6-8-8-8zm-.8 20.2c0 2.6-.7 5.2-2.1 7.4-1.4 2.2-3.3 4-5.6 5.2-2.3 1.2-4.9 1.7-7.5 1.5-2.6-.2-5.1-1.1-7.2-2.7l4.8-5.7c1 .6 2.2 1 3.4 1 1.2 0 2.4-.3 3.4-.9 1-.6 1.9-1.4 2.5-2.5.6-1 .9-2.2.9-3.4s-.3-2.4-.9-3.4c-.6-1-1.5-1.9-2.5-2.5-1-.6-2.2-.9-3.4-.9-1.2 0-2.4.4-3.4 1L8.8 8.7C10.9 7.2 13.4 6.2 16 6c2.6-.2 5.2.3 7.5 1.5s4.3 3 5.6 5.2c1.4 2.3 2.1 4.9 2.1 7.5z" style="fill:#fff"/>
</svg>