<svg xmlns="http://www.w3.org/2000/svg" viewBox="0 0 16 16" style="enable-background:new 0 0 16 16" xml:space="preserve"><path d="M6.9 1.5c1 0 2 .2 2.9.7 1.1.6 2 1.4 2.6 2.4.6 1.1 1 2.2 1 3.4s-.3 2.4-1 3.4c-.6 1-1.5 1.8-2.6 2.4-.9.5-1.9.7-2.9.7h-.5c-1.2-.1-2.4-.5-3.3-1.2l2.2-2.6c.5.3 1 .5 1.6.5.6 0 1.1-.1 1.6-.4.5-.3.9-.6 1.1-1.1.2-.6.4-1.2.4-1.7 0-.6-.1-1.1-.4-1.6-.3-.4-.7-.9-1.2-1.1-.5-.3-1-.4-1.6-.4-.5 0-1.1.1-1.5.4L3.1 2.7c1-.7 2.1-1.1 3.3-1.2h.5m0-1.2h-.6C4.9.4 3.6.9 2.4 1.8l-1.1.7.9 1 2.2 2.6.6.8.9-.5c.3-.2.6-.3.9-.3.3 0 .7.1.9.2.4.2.6.4.8.7.2.3.3.6.3 1 0 .3-.1.7-.2.9-.3.3-.5.6-.8.8-.3.1-.6.2-1 .2-.3 0-.6-.1-.9-.3L5 9.1l-.6.8-2.2 2.6-.8 1 1 .8c1.1.9 2.5 1.4 3.9 1.5h.6c1.2 0 2.4-.3 3.5-.8 1.2-.6 2.3-1.6 3-2.8.8-1.2 1.2-2.6 1.2-4s-.4-2.8-1.1-4.1c-.7-1.2-1.7-2.1-3-2.8C9.3.6 8.1.3 6.9.3z" style="fill:#141301"/></svg>